<?xml version="1.0" encoding="iso-8859-1"?>
<!-- Generator: Adobe Illustrator 19.0.0, SVG Export Plug-In . SVG Version: 6.00 Build 0)  -->
<svg version="1.1" id="Layer_1" xmlns="http://www.w3.org/2000/svg" xmlns:xlink="http://www.w3.org/1999/xlink" x="0px" y="0px"
	 viewBox="0 0 509.287 509.287" style="enable-background:new 0 0 509.287 509.287;" xml:space="preserve">
<circle style="fill:#4B5AA7;" cx="254.644" cy="254.644" r="254.644"/>
<rect x="39.672" y="263.799" style="fill:#FBD303;" width="193.95" height="193.95"/>
<rect x="275.666" y="263.799" style="fill:#F0582F;" width="193.95" height="193.95"/>
<rect x="157.669" y="51.539" style="fill:#73D658;" width="193.95" height="193.95"/>
<path style="fill:#FFFFFC;" d="M323.475,206.834L266.511,79.682c-2.034-4.747-6.781-7.46-11.868-7.46s-9.833,3.052-11.868,7.46
	l-56.964,127.152c-3.052,6.442,0,14.241,6.442,16.954c1.695,0.678,3.391,1.017,5.425,1.017c5.086,0,9.494-2.713,11.868-7.46
	l13.902-30.517h63.068l13.902,30.517c3.052,6.442,10.511,9.494,16.954,6.442C323.475,221.075,326.527,213.277,323.475,206.834z
	 M234.638,161.06l20.005-44.419l20.005,44.419H234.638z"/>
<path style="fill:#F1F3F7;" d="M378.744,436.387c-41.706,0-75.613-33.907-75.613-75.613s33.907-75.613,75.613-75.613
	c24.074,0,46.792,11.529,61.033,30.856c4.408,5.764,3.052,13.902-2.713,17.971c-5.764,4.408-13.902,3.052-17.971-2.713
	c-9.494-12.885-24.074-20.344-40.35-20.344c-27.465,0-49.844,22.379-49.844,49.844c0,27.465,22.379,49.844,49.844,49.844
	c13.902,0,27.465-5.764,36.62-16.276c4.747-5.086,12.885-5.425,18.31-0.678c5.086,4.747,5.425,12.885,0.678,18.31
	C420.111,427.571,399.767,436.387,378.744,436.387z"/>
<path style="fill:#FFFFFC;" d="M168.858,360.774c8.477-8.138,13.563-19.666,13.563-32.212c0-24.752-20.344-45.097-45.097-45.097
	h-33.568c-7.121,0-12.885,5.764-12.885,12.885v128.848c0,7.121,5.764,12.885,12.885,12.885h33.907
	c24.752,0,45.097-20.344,45.097-45.097C182.76,380.44,177.335,368.911,168.858,360.774z M116.641,309.234h21.023
	c10.511,0,19.327,8.477,19.327,19.327c0,10.511-8.477,19.327-19.327,19.327h-21.023V309.234z M137.664,412.313h-21.023v-38.654
	h21.023c10.511,0,19.327,8.477,19.327,19.327C156.991,403.497,148.175,412.313,137.664,412.313z"/>
<g>
</g>
<g>
</g>
<g>
</g>
<g>
</g>
<g>
</g>
<g>
</g>
<g>
</g>
<g>
</g>
<g>
</g>
<g>
</g>
<g>
</g>
<g>
</g>
<g>
</g>
<g>
</g>
<g>
</g>
</svg>
