<?xml version="1.0" encoding="iso-8859-1"?>
<!-- Generator: Adobe Illustrator 19.0.0, SVG Export Plug-In . SVG Version: 6.00 Build 0)  -->
<svg version="1.1" id="Layer_1" xmlns="http://www.w3.org/2000/svg" xmlns:xlink="http://www.w3.org/1999/xlink" x="0px" y="0px"
	 viewBox="0 0 512 512" style="enable-background:new 0 0 512 512;" xml:space="preserve">
<circle style="fill:#FF6262;" cx="256" cy="256" r="256"/>
<path style="fill:#FF314F;" d="M512,256c0-4.498-0.119-8.966-0.348-13.407l-92.475-92.475L169.727,373.986l-2.751-2.751
	l-49.397,11.202l129.388,129.388c3,0.103,6.008,0.176,9.033,0.176C397.384,512,512,397.384,512,256z"/>
<path style="fill:#FFEDB5;" d="M354.266,194.917c-3.029-3.029-7.942-3.029-10.971,0l-155.42,155.42l-39.974-39.974
	c-11.23-11.23-29.505-11.23-40.734,0.002l-15.489,15.489c-8.457,8.457-8.459,22.221-0.002,30.679l25.903,25.903
	c16.581,16.581,43.558,16.581,60.137,0.002l176.55-176.55C357.295,202.857,357.295,197.946,354.266,194.917z"/>
<path style="fill:#FEE187;" d="M354.266,194.917c-3.029-3.029-7.942-3.029-10.971,0l-155.42,155.42l-25.46-25.46l-51.198,51.197
	l6.363,6.363c16.581,16.581,43.558,16.581,60.137,0.002l176.55-176.55C357.295,202.857,357.295,197.946,354.266,194.917z"/>
<rect x="334.56" y="115.072" transform="matrix(-0.7071 -0.7071 0.7071 -0.7071 453.7009 588.7376)" style="fill:#930000;" width="28.444" height="170.665"/>
<g>
</g>
<g>
</g>
<g>
</g>
<g>
</g>
<g>
</g>
<g>
</g>
<g>
</g>
<g>
</g>
<g>
</g>
<g>
</g>
<g>
</g>
<g>
</g>
<g>
</g>
<g>
</g>
<g>
</g>
</svg>
