<?xml version="1.0" encoding="iso-8859-1"?>
<!-- Generator: Adobe Illustrator 19.0.0, SVG Export Plug-In . SVG Version: 6.00 Build 0)  -->
<svg version="1.1" id="Layer_1" xmlns="http://www.w3.org/2000/svg" xmlns:xlink="http://www.w3.org/1999/xlink" x="0px" y="0px"
	 viewBox="0 0 496.2 496.2" style="enable-background:new 0 0 496.2 496.2;" xml:space="preserve">
<path style="fill:#A3D5E0;" d="M496.2,248.1C496.2,111.1,385.1,0,248.1,0S0,111.1,0,248.1s111.1,248.1,248.1,248.1
	S496.2,385.1,496.2,248.1z"/>
<path style="fill:#48A1AF;" d="M248.1,243.9c0,6.6-5.3,11.9-11.9,11.9H122.5c-6.6,0-11.9-5.3-11.9-11.9v-75.2
	c0-6.6,5.3-11.9,11.9-11.9c0,0,35.5,3.2,57.1,3.2s56.7-3.2,56.7-3.2c6.6,0,11.9,5.3,11.9,11.9v33.7v41.5H248.1z"/>
<g>
	<rect x="82.4" y="275.6" style="fill:#367D84;" width="165.8" height="53.1"/>
	<rect x="96.3" y="241.6" style="fill:#367D84;" width="151.8" height="34"/>
</g>
<g>
	<rect x="100.6" y="294.7" style="fill:#48A1AF;" width="147.5" height="34"/>
	<rect x="100.6" y="275.9" style="fill:#48A1AF;" width="147.5" height="16.4"/>
</g>
<rect x="120.2" y="241.6" style="fill:#89614D;" width="118.2" height="31.6"/>
<polygon style="fill:#367D84;" points="112.4,244.6 77.1,209.1 114.1,201.8 135.6,212.5 136.7,222.7 "/>
<rect x="95.9" y="228.4" style="fill:#48A1AF;" width="16.7" height="44.5"/>
<path style="fill:#367D84;" d="M119,201.2c9.3,0,16.8,5.8,16.8,13s-7.5,13-16.8,13s-16.8-5.8-16.8-13S109.7,201.2,119,201.2z"/>
<ellipse style="fill:#48A1AF;" cx="85.6" cy="229" rx="26.9" ry="20.9"/>
<ellipse style="fill:#367D84;" cx="87.5" cy="228.5" rx="13.1" ry="10.6"/>
<ellipse style="fill:#48A1AF;" cx="88.6" cy="229.2" rx="10.4" ry="8.1"/>
<rect x="83.9" y="228.4" style="fill:#367D84;" width="16.7" height="100.3"/>
<rect x="82.4" y="228.4" style="fill:#48A1AF;" width="16.7" height="100.3"/>
<path style="fill:#367D84;" d="M80.4,235.8v13.7c0.7,0.1,1.3,0.2,2,0.2v-13.9L80.4,235.8L80.4,235.8z"/>
<path style="fill:#52B6C1;" d="M247.5,242.7l-130.9-4l20.2-15.9c0,0,26.9-4.9,48.8-4.9s61.9,6,61.9,6V242.7z"/>
<g>
	<path style="fill:#48A1AF;" d="M247.5,266.1c0,3.9-3.1,7-7,7H121.2c-3.9,0-7-3.1-7-7v-22.3c0-3.9,3.1-7,7-7c0,0,20.2-1.8,58.3-1.8
		s61,1.8,61,1.8c3.9,0,7,3.1,7,7L247.5,266.1L247.5,266.1z"/>
	<path style="fill:#48A1AF;" d="M248.1,243.9c0,6.6,5.3,11.9,11.9,11.9h113.8c6.6,0,11.9-5.3,11.9-11.9v-75.2
		c0-6.6-5.3-11.9-11.9-11.9c0,0-35.5,3.2-57.1,3.2s-56.7-3.2-56.7-3.2c-6.6,0-11.9,5.3-11.9,11.9v33.7V243.9z"/>
</g>
<g>
	<rect x="248.1" y="275.6" style="fill:#367D84;" width="165.8" height="53.1"/>
	<rect x="248.1" y="241.6" style="fill:#367D84;" width="151.8" height="34"/>
</g>
<g>
	<rect x="248.1" y="294.7" style="fill:#48A1AF;" width="147.5" height="34"/>
	<rect x="248.1" y="275.9" style="fill:#48A1AF;" width="147.5" height="16.4"/>
</g>
<rect x="257.7" y="241.6" style="fill:#89614D;" width="118.2" height="31.6"/>
<polygon style="fill:#367D84;" points="383.8,244.6 419.1,209.1 382.1,201.8 360.6,212.5 359.5,222.7 "/>
<rect x="383.6" y="228.4" style="fill:#48A1AF;" width="16.7" height="44.5"/>
<ellipse style="fill:#367D84;" cx="377.2" cy="214.2" rx="16.8" ry="13"/>
<ellipse style="fill:#48A1AF;" cx="410.6" cy="229" rx="26.9" ry="20.9"/>
<ellipse style="fill:#367D84;" cx="408.7" cy="228.5" rx="13.1" ry="10.6"/>
<ellipse style="fill:#48A1AF;" cx="407.6" cy="229.2" rx="10.4" ry="8.1"/>
<rect x="395.6" y="228.4" style="fill:#367D84;" width="16.7" height="100.3"/>
<rect x="397.1" y="228.4" style="fill:#48A1AF;" width="16.7" height="100.3"/>
<path style="fill:#367D84;" d="M415.8,235.8v13.7c-0.7,0.1-1.3,0.2-2,0.2v-13.9L415.8,235.8L415.8,235.8z"/>
<path style="fill:#52B6C1;" d="M248.7,242.7l130.9-4l-20.2-15.9c0,0-26.9-4.9-48.8-4.9c-22,0-61.9,6-61.9,6V242.7z"/>
<path style="fill:#48A1AF;" d="M248.7,266.1c0,3.9,3.1,7,7,7H375c3.9,0,7-3.1,7-7v-22.3c0-3.9-3.1-7-7-7c0,0-20.2-1.8-58.3-1.8
	s-61,1.8-61,1.8c-3.9,0-7,3.1-7,7L248.7,266.1L248.7,266.1z"/>
<g>
</g>
<g>
</g>
<g>
</g>
<g>
</g>
<g>
</g>
<g>
</g>
<g>
</g>
<g>
</g>
<g>
</g>
<g>
</g>
<g>
</g>
<g>
</g>
<g>
</g>
<g>
</g>
<g>
</g>
</svg>
