<?xml version="1.0" encoding="iso-8859-1"?>
<!-- Generator: Adobe Illustrator 19.0.0, SVG Export Plug-In . SVG Version: 6.00 Build 0)  -->
<svg version="1.1" id="Layer_1" xmlns="http://www.w3.org/2000/svg" xmlns:xlink="http://www.w3.org/1999/xlink" x="0px" y="0px"
	 viewBox="0 0 496.158 496.158" style="enable-background:new 0 0 496.158 496.158;" xml:space="preserve">
<path style="fill:#EB9783;" d="M248.082,0.003C111.07,0.003,0,111.063,0,248.085c0,137.001,111.07,248.07,248.082,248.07
	c137.006,0,248.076-111.069,248.076-248.07C496.158,111.062,385.088,0.003,248.082,0.003z"/>
<g>
	<ellipse style="fill:#8D6956;" cx="248.079" cy="209.149" rx="198.53" ry="75.12"/>
	<path style="fill:#8D6956;" d="M51.596,217.534l27.593,101.613h0.846c8.516,33.72,80.5,60.052,168.045,60.052
		c87.834,0,159.998-26.506,168.121-60.387h0.105l28.592-101.615L51.596,217.534z"/>
</g>
<ellipse style="fill:#BF2244;" cx="248.079" cy="206.469" rx="162.02" ry="50.08"/>
<path style="fill:#91C7CF;" d="M248.079,142.078c-100.347,0-181.694,28.828-181.694,64.388c0,9.205,5.461,17.953,15.275,25.873
	c28.113-22.679,304.725-22.679,332.837,0c9.815-7.92,15.276-16.668,15.276-25.873C429.773,170.906,348.426,142.078,248.079,142.078z
	"/>
<path style="fill:#6DB4BF;" d="M248.079,193.819c-74.378,0-138.306,15.841-166.419,38.52
	c28.113,22.677,92.041,38.517,166.419,38.517s138.306-15.84,166.418-38.517C386.385,209.66,322.457,193.819,248.079,193.819z"/>
<path style="fill:#FFFFFF;" d="M316.793,206.009c-11.18-0.007-20.253,2.348-20.287,8.198c-0.023,4.308,8.987,12.978,20.169,12.986
	c11.181,0.007,20.29-8.95,20.313-12.957C337.02,208.387,327.976,206.017,316.793,206.009z"/>
<path style="fill:#F4E028;" d="M316.383,217.785c-5.041-0.004-9.136,0.502-9.15,3.142c-0.016,2.639,6.059,6.41,9.098,6.413
	c3.169,0.003,9.146-3.761,9.162-6.4S321.427,217.788,316.383,217.785z"/>
<path style="fill:#FFFFFF;" d="M379.189,225.743c-1.439-3.938-9.206-6.823-25.545-6.071c-12.03,0.556-35.061,4.86-33.623,8.798
	c1.439,3.937,27.641,5.974,38.832,5.458C375.191,233.175,380.627,229.68,379.189,225.743z"/>
<path style="fill:#F4E028;" d="M346.256,227.137c-0.65-1.775-2.598-3.15-9.971-2.811c-7.369,0.341-17.107,2.971-16.717,4.041
	c0.408,1.115,11.697,2.729,19.065,2.389C346.01,230.416,346.904,228.913,346.256,227.137z"/>
<path style="fill:#FFFFFF;" d="M355.894,238.948c-6.271-3.687-26.641-9.438-36.211-7.387c-9.572,2.053-4.275,11.39,1.561,14.819
	c8.518,5.008,19.714,5.367,29.283,3.314C360.1,247.642,364.414,243.957,355.894,238.948z"/>
<path style="fill:#F4E028;" d="M336.91,235.182c-3.842-2.26-14.545-4.366-17.145-3.809c-2.711,0.582-2.328,4.9,1.514,7.159
	c3.844,2.26,8.082,1.945,12.397,1.021C337.994,238.627,340.753,237.44,336.91,235.182z"/>
<path style="fill:#FFFFFF;" d="M310.68,231.445c-9.666-1.996-30.189,4.135-35.865,7.599c-8.283,5.057-3.799,8.718,5.865,10.713
	c9.664,1.997,20.845,1.571,29.127-3.485C315.906,242.547,320.346,233.442,310.68,231.445z"/>
<path style="fill:#F4E028;" d="M311.183,231.381c-2.736-0.565-13.223,1.627-16.959,3.906c-3.738,2.283-0.928,3.452,3.43,4.352
	c4.358,0.901,8.615,1.191,12.354-1.091C313.744,236.267,313.812,231.924,311.183,231.381z"/>
<path style="fill:#FFFFFF;" d="M278.917,218.99c-16.237-0.992-24.334,1.776-26.23,5.688c-1.899,3.912,3.122,7.484,19.357,8.478
	c11.955,0.73,37.538-0.969,39.437-4.881S290.037,219.672,278.917,218.99z"/>
<g>
	<path style="fill:#F4E028;" d="M295.598,224.139c-7.326-0.447-9.432,0.896-10.289,2.66c-0.854,1.765-0.137,3.282,7.191,3.729
		c7.322,0.449,18.813-1.044,19.328-2.106C312.365,227.311,302.922,224.588,295.598,224.139z"/>
	<path style="fill:#F4E028;" d="M315.797,225.837c-6.398-0.004-11.6,1.746-11.611,3.909c-0.012,2.161,5.17,3.92,11.567,3.924
		c6.403,0.004,11.606-1.746,11.618-3.908C327.384,227.6,322.199,225.842,315.797,225.837z"/>
</g>
<path style="fill:#E2CB23;" d="M315.789,227.347c-4.219-0.003-7.65,1.073-7.658,2.401c-0.009,1.329,3.411,2.409,7.633,2.412
	c4.225,0.004,7.656-1.072,7.664-2.402C323.435,228.432,320.016,227.35,315.789,227.347z"/>
<path style="fill:#FFFFFF;" d="M175.627,212.236c-8.924-0.007-16.168,1.875-16.195,6.545c-0.02,3.439,7.175,10.36,16.102,10.367
	c8.926,0.006,16.198-7.146,16.217-10.345C191.775,214.134,184.555,212.243,175.627,212.236z"/>
<path style="fill:#F4E028;" d="M175.301,221.638c-4.025-0.004-7.293,0.4-7.306,2.509c-0.013,2.105,4.836,5.116,7.263,5.119
	c2.529,0.002,7.303-3.002,7.314-5.11C182.584,222.05,179.326,221.641,175.301,221.638z"/>
<path style="fill:#FFFFFF;" d="M225.439,227.991c-1.149-3.144-7.35-5.447-20.393-4.848c-9.604,0.444-27.99,3.881-26.842,7.023
	s22.066,4.769,30.999,4.357C222.248,233.924,226.588,231.133,225.439,227.991z"/>
<path style="fill:#F4E028;" d="M199.148,229.103c-0.52-1.418-2.074-2.515-7.959-2.244c-5.885,0.272-13.658,2.371-13.346,3.225
	c0.325,0.892,9.337,2.18,15.219,1.908C198.951,231.722,199.665,230.522,199.148,229.103z"/>
<path style="fill:#FFFFFF;" d="M206.843,238.532c-5.007-2.943-21.267-7.535-28.909-5.896c-7.641,1.64-3.412,9.092,1.247,11.83
	c6.8,3.997,15.737,4.286,23.377,2.646C210.199,245.473,213.643,242.53,206.843,238.532z"/>
<path style="fill:#F4E028;" d="M191.687,235.525c-3.067-1.803-11.611-3.486-13.688-3.041c-2.164,0.466-1.857,3.913,1.209,5.717
	c3.068,1.804,6.452,1.553,9.896,0.814C192.553,238.277,194.756,237.329,191.687,235.525z"/>
<path style="fill:#FFFFFF;" d="M170.746,232.543c-7.715-1.593-24.1,3.301-28.63,6.067c-6.614,4.034-3.033,6.958,4.683,8.552
	c7.714,1.593,16.639,1.253,23.252-2.783C174.92,241.406,178.463,234.138,170.746,232.543z"/>
<path style="fill:#F4E028;" d="M171.15,232.491c-2.186-0.452-10.557,1.299-13.54,3.118c-2.985,1.823-0.741,2.756,2.738,3.475
	c3.479,0.72,6.878,0.951,9.862-0.871C173.193,236.392,173.248,232.925,171.15,232.491z"/>
<path style="fill:#FFFFFF;" d="M145.391,222.6c-12.963-0.792-19.426,1.418-20.94,4.541c-1.517,3.124,2.492,5.975,15.453,6.768
	c9.544,0.584,29.968-0.772,31.482-3.896C172.902,226.889,154.267,223.142,145.391,222.6z"/>
<g>
	<path style="fill:#F4E028;" d="M158.707,226.71c-5.849-0.357-7.529,0.716-8.214,2.123c-0.683,1.408-0.108,2.621,5.741,2.977
		c5.845,0.359,15.018-0.833,15.43-1.681C172.094,229.243,164.554,227.068,158.707,226.71z"/>
	<path style="fill:#F4E028;" d="M174.832,228.064c-5.107-0.002-9.26,1.396-9.27,3.121c-0.01,1.727,4.127,3.13,9.234,3.133
		c5.111,0.004,9.267-1.393,9.275-3.119C184.082,229.473,179.944,228.069,174.832,228.064z"/>
</g>
<path style="fill:#E2CB23;" d="M174.826,229.269c-3.369-0.002-6.107,0.857-6.115,1.918c-0.006,1.062,2.725,1.924,6.095,1.927
	c3.372,0.002,6.112-0.858,6.118-1.918C180.93,230.138,178.199,229.273,174.826,229.269z"/>
<path style="fill:#7C5B4D;" d="M248.079,134.029c-109.647,0-198.532,33.633-198.532,75.12s88.885,75.12,198.532,75.12
	c109.646,0,198.532-33.633,198.532-75.12S357.725,134.029,248.079,134.029z M414.497,232.339
	c-28.112,22.677-92.04,38.517-166.418,38.517s-138.306-15.84-166.419-38.517c-9.814-7.92-15.275-16.668-15.275-25.873
	c0-35.56,81.348-64.388,181.694-64.388s181.694,28.828,181.694,64.388C429.773,215.671,424.312,224.419,414.497,232.339z"/>
<g>
</g>
<g>
</g>
<g>
</g>
<g>
</g>
<g>
</g>
<g>
</g>
<g>
</g>
<g>
</g>
<g>
</g>
<g>
</g>
<g>
</g>
<g>
</g>
<g>
</g>
<g>
</g>
<g>
</g>
</svg>
