<?xml version="1.0" encoding="iso-8859-1"?>
<!-- Generator: Adobe Illustrator 19.0.0, SVG Export Plug-In . SVG Version: 6.00 Build 0)  -->
<svg version="1.1" id="Layer_1" xmlns="http://www.w3.org/2000/svg" xmlns:xlink="http://www.w3.org/1999/xlink" x="0px" y="0px"
	 viewBox="0 0 509.287 509.287" style="enable-background:new 0 0 509.287 509.287;" xml:space="preserve">
<path style="fill:#6EB1E1;" d="M509.287,254.644C509.287,113.928,395.359,0,254.644,0S0,113.928,0,254.644
	c0,38.654,8.477,74.935,24.074,107.825h461.139C500.472,329.579,509.287,293.298,509.287,254.644z"/>
<path style="fill:#4485C5;" d="M24.074,362.469c40.689,86.803,128.509,146.819,230.57,146.819s189.881-60.016,230.57-146.819H24.074
	z"/>
<polygon style="fill:#FAD404;" points="58.66,322.119 450.628,322.119 343.82,378.066 99.348,378.066 "/>
<rect x="216.668" y="57.303" style="fill:#886C60;" width="17.293" height="264.816"/>
<g>
	<polygon style="fill:#FFFFFF;" points="395.02,291.603 233.96,291.603 233.96,57.303 	"/>
	<polygon style="fill:#FFFFFF;" points="103.756,291.603 216.668,291.603 216.668,57.303 	"/>
</g>
<g>
	<path style="fill:#6EB1E1;" d="M200.053,421.128h-85.446c-2.713,0-5.086-2.374-5.086-5.086c0-2.713,2.374-5.086,5.086-5.086h85.785
		c2.713,0,5.086,2.373,5.086,5.086C205.139,419.094,203.105,421.128,200.053,421.128z"/>
	<path style="fill:#6EB1E1;" d="M270.58,421.128h-17.971c-2.713,0-5.086-2.374-5.086-5.086c0-2.713,2.373-5.086,5.086-5.086h17.971
		c2.713,0,5.086,2.373,5.086,5.086C275.666,419.094,273.293,421.128,270.58,421.128z"/>
	<path style="fill:#6EB1E1;" d="M379.423,421.128h-48.826c-2.713,0-5.086-2.374-5.086-5.086c0-2.713,2.374-5.086,5.086-5.086h48.826
		c2.713,0,5.086,2.373,5.086,5.086C384.509,419.094,382.135,421.128,379.423,421.128z"/>
	<path style="fill:#6EB1E1;" d="M317.372,462.156h-92.906c-2.713,0-5.086-2.374-5.086-5.086s2.374-5.086,5.086-5.086h92.906
		c2.713,0,5.086,2.374,5.086,5.086S320.085,462.156,317.372,462.156z"/>
	<path style="fill:#6EB1E1;" d="M169.536,462.156h-24.413c-2.713,0-5.086-2.374-5.086-5.086s2.374-5.086,5.086-5.086h24.413
		c2.713,0,5.086,2.374,5.086,5.086S172.249,462.156,169.536,462.156z"/>
	<path style="fill:#6EB1E1;" d="M379.423,462.156h-24.413c-2.713,0-5.086-2.374-5.086-5.086s2.374-5.086,5.086-5.086h24.413
		c2.713,0,5.086,2.374,5.086,5.086S382.135,462.156,379.423,462.156z"/>
	<path style="fill:#6EB1E1;" d="M237.69,496.403h-24.413c-2.713,0-5.086-2.374-5.086-5.086s2.374-5.086,5.086-5.086h24.413
		c2.713,0,5.086,2.374,5.086,5.086S240.403,496.403,237.69,496.403z"/>
	<path style="fill:#6EB1E1;" d="M435.37,389.595h-12.207c-2.713,0-5.086-2.374-5.086-5.086c0-2.713,2.374-5.086,5.086-5.086h12.207
		c2.713,0,5.086,2.374,5.086,5.086C440.456,387.221,438.082,389.595,435.37,389.595z"/>
	<path style="fill:#6EB1E1;" d="M74.257,389.595H62.05c-2.713,0-5.086-2.374-5.086-5.086c0-2.713,2.374-5.086,5.086-5.086h12.207
		c2.713,0,5.086,2.374,5.086,5.086C79.343,387.221,76.97,389.595,74.257,389.595z"/>
</g>
<g>
</g>
<g>
</g>
<g>
</g>
<g>
</g>
<g>
</g>
<g>
</g>
<g>
</g>
<g>
</g>
<g>
</g>
<g>
</g>
<g>
</g>
<g>
</g>
<g>
</g>
<g>
</g>
<g>
</g>
</svg>
