<?xml version="1.0" encoding="iso-8859-1"?>
<!-- Generator: Adobe Illustrator 19.0.0, SVG Export Plug-In . SVG Version: 6.00 Build 0)  -->
<svg version="1.1" id="Layer_1" xmlns="http://www.w3.org/2000/svg" xmlns:xlink="http://www.w3.org/1999/xlink" x="0px" y="0px"
	 viewBox="0 0 512 512" style="enable-background:new 0 0 512 512;" xml:space="preserve">
<circle style="fill:#366695;" cx="256" cy="256" r="256"/>
<path style="fill:#273B7A;" d="M278.199,511.031c124.266-10.676,223.168-110.111,232.991-234.62l-82.584-76.098l-106.296,84.14
	l-92.296-83.494l-27.076,23.13l2.42,2.42l-86.231,67.929l-46.433,6.615L89.722,317.6l-6.33,2.184L278.199,511.031z"/>
<g>
	<rect x="83.385" y="297.374" style="fill:#FFFFFF;" width="12.067" height="22.411"/>
	<rect x="217.419" y="297.374" style="fill:#FFFFFF;" width="12.067" height="22.411"/>
</g>
<path style="fill:#FFC61B;" d="M226.192,256H86.699c-2.896,0-5.244-2.348-5.244-5.244v-46.402c0-2.896,2.348-5.244,5.244-5.244
	h139.493c2.896,0,5.244,2.348,5.244,5.244v46.402C231.434,253.652,229.086,256,226.192,256z"/>
<path style="fill:#FFEDB5;" d="M204.545,260.963h-96.201c-1.996,0-3.617-1.619-3.617-3.617v-32.001c0-1.996,1.619-3.617,3.617-3.617
	h96.203c1.996,0,3.617,1.619,3.617,3.617v32.001C208.162,259.344,206.543,260.963,204.545,260.963z"/>
<path style="fill:#E09112;" d="M236.534,302.545H76.355c-2.896,0-5.244-2.348-5.244-5.244v-46.402c0-2.896,2.348-5.244,5.244-5.244
	h160.18c2.896,0,5.244,2.348,5.244,5.244v46.402C241.778,300.197,239.43,302.545,236.534,302.545z"/>
<g>
	<rect x="282.496" y="297.374" style="fill:#FFFFFF;" width="12.067" height="22.411"/>
	<rect x="416.53" y="297.374" style="fill:#FFFFFF;" width="12.067" height="22.411"/>
</g>
<path style="fill:#EAA22F;" d="M425.303,256H285.81c-2.896,0-5.244-2.348-5.244-5.244v-46.402c0-2.896,2.348-5.244,5.244-5.244
	h139.493c2.896,0,5.244,2.348,5.244,5.244v46.402C430.545,253.652,428.197,256,425.303,256z"/>
<path style="fill:#FEE187;" d="M403.656,260.963h-96.203c-1.996,0-3.617-1.619-3.617-3.617v-32.001c0-1.996,1.619-3.617,3.617-3.617
	h96.203c1.996,0,3.617,1.619,3.617,3.617v32.001C407.273,259.344,405.654,260.963,403.656,260.963z"/>
<path style="fill:#FF5419;" d="M435.645,302.545h-160.18c-2.896,0-5.244-2.348-5.244-5.244v-46.402c0-2.896,2.348-5.244,5.244-5.244
	h160.18c2.896,0,5.244,2.348,5.244,5.244v46.402C440.889,300.197,438.541,302.545,435.645,302.545z"/>
<g>
</g>
<g>
</g>
<g>
</g>
<g>
</g>
<g>
</g>
<g>
</g>
<g>
</g>
<g>
</g>
<g>
</g>
<g>
</g>
<g>
</g>
<g>
</g>
<g>
</g>
<g>
</g>
<g>
</g>
</svg>
