<?xml version="1.0" encoding="iso-8859-1"?>
<!-- Generator: Adobe Illustrator 19.0.0, SVG Export Plug-In . SVG Version: 6.00 Build 0)  -->
<svg version="1.1" id="Layer_1" xmlns="http://www.w3.org/2000/svg" xmlns:xlink="http://www.w3.org/1999/xlink" x="0px" y="0px"
	 viewBox="0 0 512 512" style="enable-background:new 0 0 512 512;" xml:space="preserve">
<circle style="fill:#366695;" cx="256" cy="256" r="256"/>
<path style="fill:#273B7A;" d="M361.575,118.013l-38.788-15.441l-134.882-0.431l-12.3,5.275l-1.431-0.021l-16.15,16.15l0.726,0.726
	l-21.837,21.837l5.361,200.778l-25.912,38.407l123.914,126.212C245.481,511.821,250.72,512,256,512
	c136.09,0,247.36-106.198,255.504-240.24L361.575,118.013z"/>
<rect x="309.441" y="102.141" style="fill:#02B2B2;" width="6.896" height="51.717"/>
<path style="fill:#FFFFFF;" d="M381.271,364.032h-12.067V168.224c0-34.14-27.776-61.916-61.918-61.916H204.714
	c-34.142,0-61.918,27.776-61.918,61.916v195.808h-12.067V168.224c0-40.795,33.19-73.983,73.985-73.983h102.572
	c40.794,0,73.985,33.189,73.985,73.983L381.271,364.032L381.271,364.032z"/>
<path style="fill:#D0D1D3;" d="M307.286,94.241h-51.86v12.067h51.86c34.142,0,61.918,27.776,61.918,61.916v195.808h12.067V168.224
	C381.271,127.429,348.081,94.241,307.286,94.241z"/>
<path style="fill:#FEE187;" d="M230.178,294.788h-34.552c-4.258,0-7.721-3.463-7.721-7.721v-13.865c0-4.258,3.463-7.721,7.721-7.721
	h34.552c4.258,0,7.721,3.463,7.721,7.721v13.865C237.899,291.325,234.436,294.788,230.178,294.788z M195.627,272.377
	c-0.455,0-0.826,0.371-0.826,0.826v13.865c0,0.455,0.371,0.826,0.826,0.826h34.552c0.455,0,0.826-0.371,0.826-0.826v-13.865
	c0-0.455-0.371-0.826-0.826-0.826H195.627z"/>
<path style="fill:#FFC61B;" d="M230.178,265.481h-16.125v6.896h16.125c0.455,0,0.826,0.371,0.826,0.826v13.865
	c0,0.455-0.371,0.826-0.826,0.826h-16.125v6.896h16.125c4.258,0,7.721-3.463,7.721-7.721v-13.865
	C237.899,268.945,234.436,265.481,230.178,265.481z"/>
<path style="fill:#E09112;" d="M261.172,364.318h-96.539c-3.65,0-6.608-2.958-6.608-6.608v-66.658c0-3.65,2.958-6.608,6.608-6.608
	h96.539c3.65,0,6.608,2.958,6.608,6.608v66.658C267.779,361.36,264.821,364.318,261.172,364.318z"/>
<path style="fill:#FF5419;" d="M261.172,284.444h-47.12v79.874h47.12c3.65,0,6.608-2.958,6.608-6.608v-66.658
	C267.779,287.403,264.821,284.444,261.172,284.444z"/>
<rect x="116.364" y="353.108" style="fill:#FEE187;" width="279.273" height="32.18"/>
<rect x="255.431" y="353.108" style="fill:#FFC61B;" width="140.205" height="32.18"/>
<g>
	<circle style="fill:#FF5419;" cx="162.34" cy="395.067" r="20.113"/>
	<circle style="fill:#FF5419;" cx="349.66" cy="395.067" r="20.113"/>
</g>
<path style="fill:#71E2EF;" d="M287.27,312.889h51.238c7.273,0,13.169-5.896,13.169-13.169V168.224
	c0-14.36-11.642-26.002-26.002-26.002h-25.572c-14.36,0-26.002,11.642-26.002,26.002V299.72
	C274.101,306.993,279.997,312.889,287.27,312.889z"/>
<g>
</g>
<g>
</g>
<g>
</g>
<g>
</g>
<g>
</g>
<g>
</g>
<g>
</g>
<g>
</g>
<g>
</g>
<g>
</g>
<g>
</g>
<g>
</g>
<g>
</g>
<g>
</g>
<g>
</g>
</svg>
