<?xml version="1.0" encoding="iso-8859-1"?>
<!-- Generator: Adobe Illustrator 19.0.0, SVG Export Plug-In . SVG Version: 6.00 Build 0)  -->
<svg version="1.1" id="Layer_1" xmlns="http://www.w3.org/2000/svg" xmlns:xlink="http://www.w3.org/1999/xlink" x="0px" y="0px"
	 viewBox="0 0 380.583 380.583" style="enable-background:new 0 0 380.583 380.583;" xml:space="preserve">
<g>
	<g>
		<g>
			<path style="fill:#333E48;" d="M103.979,163.605H69.112c-7.018,0-12.706,5.689-12.706,12.706s5.688,12.706,12.706,12.706h26.824
				v15.07h20.749v-27.775C116.685,169.295,110.996,163.605,103.979,163.605z"/>
			<rect x="73.1" y="163.605" style="fill:#6FD1E6;" width="7.978" height="25.412"/>
		</g>
		<rect x="84.085" y="199.704" style="fill:#A4A9AD;" width="44.451" height="13.297"/>
	</g>
	<g>
		<g>
			<path style="fill:#333E48;" d="M276.6,163.605h34.867c7.017,0,12.706,5.689,12.706,12.706s-5.689,12.706-12.706,12.706h-26.825
				v15.07h-20.748v-27.775C263.894,169.295,269.583,163.605,276.6,163.605z"/>
			<rect x="299.5" y="163.605" style="fill:#FF5959;" width="7.977" height="25.412"/>
		</g>
		<rect x="252.043" y="199.704" style="fill:#A4A9AD;" width="44.451" height="13.297"/>
	</g>
	<rect x="61.628" y="211.131" style="fill:#5C6670;" width="257.321" height="24.661"/>
	<path style="fill:#99DAEA;" d="M0,230.736c0,44.324,38.508,83.006,95.682,103.598h189.219
		c57.174-20.592,95.682-59.274,95.682-103.598L0,230.736L0,230.736z"/>
	<g>
		<path style="fill:#5C6670;" d="M202.702,206.353h-24.82V83.48c0-20.529,16.702-37.231,37.23-37.231
			c20.53,0,37.232,16.702,37.232,37.231v11.031h-24.821V83.48c0-6.843-5.567-12.411-12.411-12.411
			c-6.842,0-12.41,5.568-12.41,12.411L202.702,206.353L202.702,206.353z"/>
		<g>
			<rect x="168.066" y="199.704" style="fill:#A4A9AD;" width="44.451" height="13.297"/>
			<rect x="189.089" y="199.704" style="fill:#333E48;" width="2.405" height="13.297"/>
			<rect x="177.513" y="199.704" style="fill:#333E48;" width="2.404" height="13.297"/>
			<rect x="200.667" y="199.704" style="fill:#333E48;" width="2.404" height="13.297"/>
		</g>
		<rect x="225.785" y="94.511" style="fill:#A4A9AD;" width="28.295" height="15.957"/>
	</g>
</g>
<g>
</g>
<g>
</g>
<g>
</g>
<g>
</g>
<g>
</g>
<g>
</g>
<g>
</g>
<g>
</g>
<g>
</g>
<g>
</g>
<g>
</g>
<g>
</g>
<g>
</g>
<g>
</g>
<g>
</g>
</svg>
