<?xml version="1.0" encoding="iso-8859-1"?>
<!-- Generator: Adobe Illustrator 19.0.0, SVG Export Plug-In . SVG Version: 6.00 Build 0)  -->
<svg version="1.1" id="Layer_1" xmlns="http://www.w3.org/2000/svg" xmlns:xlink="http://www.w3.org/1999/xlink" x="0px" y="0px"
	 viewBox="0 0 512 512" style="enable-background:new 0 0 512 512;" xml:space="preserve">
<circle style="fill:#FEE187;" cx="256" cy="256" r="256"/>
<path style="fill:#FFC61B;" d="M505.601,313.097L293.019,99.871l-6.563-4.841l-7.802-8.359h-44.277l-17.358,46.609l42.536,40.834
	v35.819h-123.94l-18.389,59.818l92.067,92.967l-65.346,47.571l101.476,101.476c3.51,0.143,7.034,0.234,10.578,0.234
	C377.758,512,479.654,426.996,505.601,313.097z"/>
<path style="fill:#386895;" d="M361.132,197.461h-96.19v-30.275c19.865-4.686,34.694-22.562,34.694-43.839
	c0-24.833-20.204-45.037-45.037-45.037s-45.037,20.204-45.037,45.037c0,5.711,4.632,10.343,10.343,10.343
	s10.343-4.632,10.343-10.343c0-13.426,10.924-24.35,24.35-24.35c13.426,0,24.35,10.924,24.35,24.35s-10.924,24.35-24.35,24.35
	c-5.711,0-10.343,4.632-10.343,10.343v39.419h-93.386c-24.255,0.002-43.987,19.734-43.987,43.987s19.732,43.987,43.987,43.987
	h210.265c24.252,0,43.985-19.732,43.985-43.987C405.118,217.193,385.386,197.461,361.132,197.461z M361.132,264.745H150.869
	c-12.847,0-23.3-10.452-23.3-23.3c0-12.848,10.452-23.299,23.3-23.299h210.265c12.847,0,23.299,10.452,23.299,23.299
	C384.433,254.292,373.979,264.745,361.132,264.745z"/>
<path style="fill:#273B7A;" d="M361.132,197.461h-96.19v-30.275c19.865-4.686,34.694-22.562,34.694-43.839
	c0-24.267-19.296-44.103-43.349-44.994v20.73c12.638,0.874,22.662,11.409,22.662,24.264s-10.025,23.392-22.662,24.264v70.535
	h104.845c12.847,0,23.299,10.452,23.299,23.299c0,12.847-10.452,23.3-23.299,23.3H256.286v20.687h104.844
	c24.252,0,43.985-19.732,43.985-43.987C405.118,217.193,385.386,197.461,361.132,197.461z"/>
<path style="fill:#FF314F;" d="M143.946,410.29h224.108V264.892c0-13.955-11.314-25.269-25.269-25.269h-173.57
	c-13.955,0-25.269,11.314-25.269,25.269V410.29z"/>
<path style="fill:#A30F44;" d="M368.054,264.892c0-13.955-11.314-25.269-25.269-25.269h-86.497V410.29h111.766V264.892z"/>
<g>
</g>
<g>
</g>
<g>
</g>
<g>
</g>
<g>
</g>
<g>
</g>
<g>
</g>
<g>
</g>
<g>
</g>
<g>
</g>
<g>
</g>
<g>
</g>
<g>
</g>
<g>
</g>
<g>
</g>
</svg>
