<?xml version="1.0" encoding="iso-8859-1"?>
<!-- Generator: Adobe Illustrator 19.0.0, SVG Export Plug-In . SVG Version: 6.00 Build 0)  -->
<svg version="1.1" id="Layer_1" xmlns="http://www.w3.org/2000/svg" xmlns:xlink="http://www.w3.org/1999/xlink" x="0px" y="0px"
	 viewBox="0 0 512 512" style="enable-background:new 0 0 512 512;" xml:space="preserve">
<circle style="fill:#FFC61B;" cx="256" cy="256" r="256"/>
<path style="fill:#EAA22F;" d="M501.726,327.977L357.95,184.201l-33.077,34.364l-14.931-14.931l-191.574,23.921l162.502,162.502
	l-2.012,3.432l34.892,37.055l-3.705,20.89l42.574,41.682C424.31,463.875,479.761,403.08,501.726,327.977z"/>
<path style="fill:#386895;" d="M284.444,142.222H133.777c-11.045,0-19.999,8.954-19.999,19.999v52.596
	c0,7.77,4.501,14.838,11.542,18.123l110.363,51.503L284.444,142.222z"/>
<g>
	<path style="fill:#273B7A;" d="M293.236,398.222h42.134c11.295,0,20.671-7.499,21.487-17.182l12.921-153.484h-85.333
		L271.75,378.366C270.846,389.092,280.726,398.222,293.236,398.222z"/>
	<circle style="fill:#273B7A;" cx="284.444" cy="227.556" r="85.333"/>
</g>
<path style="fill:#121149;" d="M348.656,171.389l-120.38,120.38c15.01,13.14,34.651,21.121,56.167,21.121
	c47.128,0,85.333-38.205,85.333-85.333C369.778,206.039,361.798,186.397,348.656,171.389z"/>
<path style="fill:#386895;" d="M312.889,452.525c-2.381,0-4.31-1.929-4.31-4.31v-56.889c0-2.381,1.929-4.31,4.31-4.31
	s4.31,1.929,4.31,4.31v56.889C317.199,450.596,315.27,452.525,312.889,452.525z"/>
<g>
</g>
<g>
</g>
<g>
</g>
<g>
</g>
<g>
</g>
<g>
</g>
<g>
</g>
<g>
</g>
<g>
</g>
<g>
</g>
<g>
</g>
<g>
</g>
<g>
</g>
<g>
</g>
<g>
</g>
</svg>
