<?xml version="1.0" encoding="iso-8859-1"?>
<!-- Generator: Adobe Illustrator 19.0.0, SVG Export Plug-In . SVG Version: 6.00 Build 0)  -->
<svg version="1.1" id="Layer_1" xmlns="http://www.w3.org/2000/svg" xmlns:xlink="http://www.w3.org/1999/xlink" x="0px" y="0px"
	 viewBox="0 0 512 512" style="enable-background:new 0 0 512 512;" xml:space="preserve">
<circle style="fill:#FEE187;" cx="256" cy="256" r="256"/>
<path style="fill:#FFC61B;" d="M511.524,271.431L335.3,95.206l-33.708,21.64l14.158,14.158L176.7,434.033l77.95,77.95
	c0.45,0.002,0.898,0.017,1.35,0.017C392.202,512,503.543,405.628,511.524,271.431z"/>
<rect x="176.7" y="106.02" style="fill:#386895;" width="158.599" height="317.199"/>
<g>
	<rect x="256" y="106.02" style="fill:#273B7A;" width="79.3" height="317.199"/>
	<path style="fill:#273B7A;" d="M295.805,194.131h-79.61c-13.85,0-25.076-11.228-25.076-25.076v-2.713
		c0-13.85,11.228-25.076,25.076-25.076h79.61c13.85,0,25.076,11.228,25.076,25.076v2.713
		C320.881,182.903,309.655,194.131,295.805,194.131z"/>
	<rect x="176.7" y="95.211" style="fill:#273B7A;" width="158.599" height="26.433"/>
	<rect x="176.7" y="407.6" style="fill:#273B7A;" width="158.599" height="26.433"/>
</g>
<g>
	<path style="fill:#121149;" d="M295.805,141.264H256v52.867h39.805c13.85,0,25.078-11.228,25.078-25.076v-2.713
		C320.881,152.492,309.655,141.264,295.805,141.264z"/>
	<rect x="256" y="95.211" style="fill:#121149;" width="79.3" height="26.433"/>
	<rect x="256" y="407.6" style="fill:#121149;" width="79.3" height="26.433"/>
</g>
<g>
</g>
<g>
</g>
<g>
</g>
<g>
</g>
<g>
</g>
<g>
</g>
<g>
</g>
<g>
</g>
<g>
</g>
<g>
</g>
<g>
</g>
<g>
</g>
<g>
</g>
<g>
</g>
<g>
</g>
</svg>
