<?xml version="1.0" encoding="iso-8859-1"?>
<!-- Generator: Adobe Illustrator 19.0.0, SVG Export Plug-In . SVG Version: 6.00 Build 0)  -->
<svg version="1.1" id="Layer_1" xmlns="http://www.w3.org/2000/svg" xmlns:xlink="http://www.w3.org/1999/xlink" x="0px" y="0px"
	 viewBox="0 0 330.259 330.259" style="enable-background:new 0 0 330.259 330.259;" xml:space="preserve">
<g>
	<rect x="152.669" y="264.223" style="fill:#734F42;" width="24.923" height="44.036"/>
	<rect x="22.117" y="114.198" style="fill:#333E48;" width="31.234" height="16.396"/>
	<rect x="276.909" y="114.198" style="fill:#333E48;" width="31.234" height="16.396"/>
	<path style="fill:#9A6B58;" d="M165.13,274.557c-83.901,0-152.16-68.259-152.16-152.16V90.259c0-5.247,4.253-9.5,9.5-9.5
		s9.5,4.253,9.5,9.5v32.138c0,73.425,59.735,133.16,133.16,133.16s133.16-59.735,133.16-133.16V90.259c0-5.247,4.253-9.5,9.5-9.5
		s9.5,4.253,9.5,9.5v32.138C317.291,206.298,249.032,274.557,165.13,274.557z"/>
	<path style="fill:#9A6B58;" d="M216.447,315.96c0-9.728-7.887-17.616-17.614-17.616H131.43c-9.728,0-17.616,7.888-17.616,17.616
		H216.447z"/>
	<path style="fill:#734F42;" d="M237.252,330.259c0-10.482-8.497-18.981-18.98-18.981H111.987c-10.482,0-18.979,8.499-18.979,18.981
		H237.252z"/>
	<g>
		<circle style="fill:#734F42;" cx="165.13" cy="122.396" r="122.396"/>
		<circle style="fill:#99DAEA;" cx="165.13" cy="122.396" r="109.73"/>
		<path style="opacity:0.5;fill:#C4E9F2;enable-background:new    ;" d="M273.739,106.703L149.437,231.005
			c5.126,0.734,10.364,1.122,15.693,1.122c60.602,0,109.73-49.128,109.73-109.73C274.86,117.067,274.472,111.829,273.739,106.703z"
			/>
		<path style="opacity:0.5;fill:#C4E9F2;enable-background:new    ;" d="M215.574,24.928L67.662,172.84
			c9.956,19.197,25.416,35.077,44.291,45.555L261.128,69.219C250.65,50.344,234.771,34.884,215.574,24.928z"/>
		<path style="fill:#6FD1E6;" d="M165.13,12.666c-60.603,0-109.73,49.128-109.73,109.73c0,1.373,0.034,2.738,0.084,4.099
			C57.641,67.793,105.901,20.864,165.13,20.864s107.489,46.929,109.647,105.631c0.05-1.361,0.084-2.726,0.084-4.099
			C274.86,61.794,225.732,12.666,165.13,12.666z"/>
	</g>
</g>
<g>
</g>
<g>
</g>
<g>
</g>
<g>
</g>
<g>
</g>
<g>
</g>
<g>
</g>
<g>
</g>
<g>
</g>
<g>
</g>
<g>
</g>
<g>
</g>
<g>
</g>
<g>
</g>
<g>
</g>
</svg>
