<?xml version="1.0" encoding="iso-8859-1"?>
<!-- Generator: Adobe Illustrator 19.0.0, SVG Export Plug-In . SVG Version: 6.00 Build 0)  -->
<svg version="1.1" id="Layer_1" xmlns="http://www.w3.org/2000/svg" xmlns:xlink="http://www.w3.org/1999/xlink" x="0px" y="0px"
	 viewBox="0 0 512 512" style="enable-background:new 0 0 512 512;" xml:space="preserve">
<circle style="fill:#FFEDB5;" cx="256" cy="256" r="256"/>
<path style="fill:#FEE187;" d="M392.306,159.763l-57.546,53.174l-1.348-1.348L130.365,420.716l88.609,88.609
	c12.091,1.751,24.45,2.676,37.028,2.676c133.684,0,243.415-102.476,254.974-233.157L392.306,159.763z"/>
<g>
	
		<rect x="282.601" y="126.685" transform="matrix(0.7071 0.7071 -0.7071 0.7071 195.7182 -200.1733)" style="fill:#386895;" width="113.777" height="18.963"/>
	
		<rect x="263.707" y="145.579" transform="matrix(0.7071 0.7071 -0.7071 0.7071 203.5441 -181.2788)" style="fill:#386895;" width="113.777" height="18.963"/>
	
		<rect x="243.595" y="165.697" transform="matrix(0.7071 0.7071 -0.7071 0.7071 211.8792 -161.1654)" style="fill:#386895;" width="113.777" height="18.963"/>
	
		<rect x="223.501" y="185.815" transform="matrix(0.7071 0.7071 -0.7071 0.7071 220.2192 -141.0641)" style="fill:#386895;" width="113.777" height="18.963"/>
</g>
<g>
	
		<rect x="272.241" y="141.614" transform="matrix(-0.7071 0.7071 -0.7071 -0.7071 613.5154 142.8781)" style="fill:#273B7A;" width="9.852" height="113.777"/>
	
		<rect x="203.389" y="205.915" transform="matrix(0.7071 0.7071 -0.7071 0.7071 228.542 -120.9557)" style="fill:#273B7A;" width="113.777" height="18.963"/>
	
		<rect x="183.253" y="226.033" transform="matrix(0.7071 0.7071 -0.7071 0.7071 236.8699 -100.825)" style="fill:#273B7A;" width="113.777" height="18.963"/>
	
		<rect x="163.142" y="246.151" transform="matrix(0.7071 0.7071 -0.7071 0.7071 245.2049 -80.7115)" style="fill:#273B7A;" width="113.777" height="18.963"/>
	<path style="fill:#273B7A;" d="M120.163,410.515l10.2,10.2c2.738,2.738,7.175,2.738,9.912,0l251.561-251.561
		c2.738-2.738,2.738-7.175,0-9.912l-10.2-10.2c-2.738-2.738-7.175-2.738-9.912,0L120.163,400.603
		C117.426,403.34,117.426,407.778,120.163,410.515z"/>
</g>
<path style="fill:#121149;" d="M120.163,400.603c-2.738,2.738-2.738,7.175,0,9.912l10.2,10.2c2.738,2.738,7.175,2.738,9.912,0
	l183.03-183.031l-20.113-20.113L120.163,400.603z"/>
<g>
</g>
<g>
</g>
<g>
</g>
<g>
</g>
<g>
</g>
<g>
</g>
<g>
</g>
<g>
</g>
<g>
</g>
<g>
</g>
<g>
</g>
<g>
</g>
<g>
</g>
<g>
</g>
<g>
</g>
</svg>
