<?xml version="1.0" encoding="iso-8859-1"?>
<!-- Generator: Adobe Illustrator 19.0.0, SVG Export Plug-In . SVG Version: 6.00 Build 0)  -->
<svg version="1.1" id="Layer_1" xmlns="http://www.w3.org/2000/svg" xmlns:xlink="http://www.w3.org/1999/xlink" x="0px" y="0px"
	 viewBox="0 0 512 512" style="enable-background:new 0 0 512 512;" xml:space="preserve">
<circle style="fill:#FF314F;" cx="256" cy="256" r="256"/>
<path style="fill:#A30F44;" d="M511.983,257.307L369.778,113.778l-48.331,66.919l-77.083-83.08l-36.759,140.121l7.563,7.563
	l-40.819,189.406l77.238,77.238c1.469,0.024,2.938,0.055,4.411,0.055C396.948,512,511.278,398.089,511.983,257.307z"/>
<path style="fill:#386895;" d="M243.214,438.518h-59.763c-7.061,0-12.784-5.723-12.784-12.786V138.414
	c0-7.061,5.723-12.784,12.784-12.784h59.763c7.061,0,12.786,5.723,12.786,12.784v287.318
	C256,432.795,250.277,438.518,243.214,438.518z"/>
<path style="fill:#273B7A;" d="M243.214,125.63H214.05v312.889h29.163c7.061,0,12.786-5.725,12.786-12.786V138.416
	C256,131.353,250.275,125.63,243.214,125.63z"/>
<rect x="182.303" y="97.616" style="fill:#FFFFFF;" width="62.061" height="28.444"/>
<g>
	<rect x="214.057" y="97.616" style="fill:#D0D1D3;" width="30.311" height="28.444"/>
	<path style="fill:#D0D1D3;" d="M298.667,437.441L298.667,437.441c-7.854,0-14.222-6.368-14.222-14.222V117.226
		c0-7.854,6.368-14.222,14.222-14.222l0,0c7.854,0,14.222,6.368,14.222,14.222v305.993
		C312.889,431.073,306.521,437.441,298.667,437.441z"/>
</g>
<rect x="312.889" y="113.778" style="fill:#FFFFFF;" width="56.889" height="85.333"/>
<g>
</g>
<g>
</g>
<g>
</g>
<g>
</g>
<g>
</g>
<g>
</g>
<g>
</g>
<g>
</g>
<g>
</g>
<g>
</g>
<g>
</g>
<g>
</g>
<g>
</g>
<g>
</g>
<g>
</g>
</svg>
