<?xml version="1.0" encoding="iso-8859-1"?>
<!-- Generator: Adobe Illustrator 19.0.0, SVG Export Plug-In . SVG Version: 6.00 Build 0)  -->
<svg version="1.1" id="Layer_1" xmlns="http://www.w3.org/2000/svg" xmlns:xlink="http://www.w3.org/1999/xlink" x="0px" y="0px"
	 viewBox="0 0 512 512" style="enable-background:new 0 0 512 512;" xml:space="preserve">
<circle style="fill:#273B7A;" cx="256" cy="256" r="256"/>
<path style="fill:#121149;" d="M507.195,305.526L400.78,199.111l-7.156,1.436l-11.211-8.311l-16.129-2.098l-20.027,14.76
	l-16.048,16.048v5.846l-24.429-27.036l-48.749-3.243l-20.246,14.665v16.665v108.247h16.627l-49.705,24.781l-118.375,37.35
	L190.692,503.58C211.542,509.066,233.427,512,256,512C380.44,512,484.124,423.207,507.195,305.526z"/>
<rect x="85.333" y="312.889" style="fill:#71E2EF;" width="341.333" height="85.333"/>
<rect x="273.239" y="312.889" style="fill:#38C6D9;" width="153.428" height="85.333"/>
<rect x="85.333" y="284.444" style="fill:#02B2B2;" width="341.333" height="28.444"/>
<rect x="273.239" y="284.444" style="fill:#386895;" width="153.428" height="28.444"/>
<path style="fill:#FFC61B;" d="M369.778,186.613c-24.716,0-44.822,20.106-44.822,44.822v13.36h-83.609v-13.36
	c0-18.061,14.693-32.754,32.754-32.754s32.754,14.693,32.754,32.754c0,3.332,2.701,6.034,6.034,6.034s6.034-2.701,6.034-6.034
	c0-24.716-20.106-44.822-44.822-44.822s-44.822,20.106-44.822,44.822v77.576c0,3.332,2.701,6.034,6.034,6.034
	s6.034-2.701,6.034-6.034v-23.704h83.609v23.704c0,3.332,2.701,6.034,6.034,6.034s6.034-2.701,6.034-6.034v-77.576
	c0-18.061,14.693-32.754,32.754-32.754s32.754,14.693,32.754,32.754c0,3.332,2.701,6.034,6.034,6.034s6.034-2.701,6.034-6.034
	C414.599,206.719,394.493,186.613,369.778,186.613z M241.347,273.239v-16.377h83.609v16.377H241.347z"/>
<g>
	<path style="fill:#EAA22F;" d="M274.101,198.68c18.061,0,32.754,14.693,32.754,32.754c0,3.332,2.701,6.034,6.034,6.034
		s6.034-2.701,6.034-6.034c0-24.716-20.106-44.822-44.822-44.822c-0.29,0-0.574,0.017-0.862,0.022v12.09
		C273.529,198.716,273.81,198.68,274.101,198.68z"/>
	<path style="fill:#EAA22F;" d="M369.778,186.613c-24.716,0-44.822,20.106-44.822,44.822v13.36h-51.717v12.067h51.717v16.377
		h-51.717v12.067h51.717v23.704c0,3.332,2.701,6.034,6.034,6.034s6.034-2.701,6.034-6.034v-77.576
		c0-18.061,14.693-32.754,32.754-32.754s32.754,14.693,32.754,32.754c0,3.332,2.701,6.034,6.034,6.034s6.034-2.701,6.034-6.034
		C414.599,206.719,394.493,186.613,369.778,186.613z"/>
</g>
<g>
</g>
<g>
</g>
<g>
</g>
<g>
</g>
<g>
</g>
<g>
</g>
<g>
</g>
<g>
</g>
<g>
</g>
<g>
</g>
<g>
</g>
<g>
</g>
<g>
</g>
<g>
</g>
<g>
</g>
</svg>
