<?xml version="1.0" encoding="iso-8859-1"?>
<!-- Generator: Adobe Illustrator 19.0.0, SVG Export Plug-In . SVG Version: 6.00 Build 0)  -->
<svg version="1.1" id="Layer_1" xmlns="http://www.w3.org/2000/svg" xmlns:xlink="http://www.w3.org/1999/xlink" x="0px" y="0px"
	 viewBox="0 0 512 512" style="enable-background:new 0 0 512 512;" xml:space="preserve">
<circle style="fill:#FFC61B;" cx="256" cy="256" r="256"/>
<path style="fill:#EAA22F;" d="M502.763,324.327L273.946,95.51l-74.99,124.132l28.696,28.696L99.125,379.354l131.384,131.384
	c8.385,0.829,16.887,1.26,25.491,1.26C373.72,512,472.866,432.537,502.763,324.327z"/>
<path style="fill:#A30F44;" d="M99.125,379.356h230.378v-93.003c0-21.688-17.582-39.269-39.269-39.269H138.395
	c-21.688,0-39.269,17.582-39.269,39.269v93.003H99.125z"/>
<path style="fill:#930000;" d="M329.504,286.353c0-21.688-17.582-39.269-39.269-39.269H213.48v132.272h116.026v-93.003H329.504z"/>
<circle style="fill:#FFFFFF;" cx="214.316" cy="188.113" r="70.285"/>
<path style="fill:#FFEDB5;" d="M214.314,117.824c-0.281,0-0.557,0.017-0.836,0.021v140.528c0.279,0.003,0.555,0.021,0.836,0.021
	c38.817,0,70.285-31.468,70.285-70.285C284.6,149.292,253.131,117.824,214.314,117.824z"/>
<g>
	<circle style="fill:#FFAD9E;" cx="214.316" cy="290.599" r="7.513"/>
	<circle style="fill:#FFAD9E;" cx="214.316" cy="317.319" r="7.513"/>
	<circle style="fill:#FFAD9E;" cx="214.316" cy="344.867" r="7.513"/>
</g>
<g>
	<path style="fill:#FF6262;" d="M214.316,283.096c-0.286,0-0.559,0.053-0.836,0.084v14.855c0.278,0.031,0.55,0.084,0.836,0.084
		c4.149,0,7.513-3.363,7.513-7.513S218.464,283.096,214.316,283.096z"/>
	<path style="fill:#FF6262;" d="M214.316,309.807c-0.286,0-0.559,0.053-0.836,0.084v14.857c0.278,0.031,0.55,0.084,0.836,0.084
		c4.149,0,7.513-3.363,7.513-7.513C221.827,313.17,218.464,309.807,214.316,309.807z"/>
	<path style="fill:#FF6262;" d="M214.316,337.351c-0.286,0-0.559,0.053-0.836,0.084v14.857c0.278,0.031,0.55,0.084,0.836,0.084
		c4.149,0,7.513-3.363,7.513-7.513S218.464,337.351,214.316,337.351z"/>
</g>
<path style="fill:#B54324;" d="M368.581,296.994h-43.803c-4.953,0-8.983-4.03-8.983-8.983v-19.304c0-4.953,4.03-8.983,8.983-8.983
	h43.803c4.953,0,8.983,4.03,8.983,8.983v19.304C377.565,292.964,373.534,296.994,368.581,296.994z M324.78,266.402
	c-1.272,0-2.305,1.034-2.305,2.305v19.304c0,1.272,1.034,2.305,2.305,2.305h43.803c1.272,0,2.305-1.034,2.305-2.305v-19.304
	c0-1.272-1.034-2.305-2.305-2.305H324.78z"/>
<path style="fill:#FFEDB5;" d="M423.848,393.276H269.515c-5.365,0-9.714-4.349-9.714-9.714v-89.605c0-5.365,4.349-9.714,9.714-9.714
	h154.333c5.365,0,9.714,4.349,9.714,9.714v89.605C433.562,388.927,429.213,393.276,423.848,393.276z"/>
<g>
	<rect x="277.825" y="284.238" style="fill:#FF7F4F;" width="27.545" height="109.037"/>
	<rect x="387.999" y="284.238" style="fill:#FF7F4F;" width="27.545" height="109.037"/>
</g>
<path style="fill:#FF314F;" d="M283.177,172.915H145.451v-58.361c0-13.407,10.869-24.276,24.276-24.276h89.176
	c13.407,0,24.276,10.869,24.276,24.276v58.361H283.177z"/>
<path style="fill:#A30F44;" d="M283.177,114.554c0-13.407-10.869-24.276-24.276-24.276h-45.423v82.635h69.699V114.554z"/>
<g>
</g>
<g>
</g>
<g>
</g>
<g>
</g>
<g>
</g>
<g>
</g>
<g>
</g>
<g>
</g>
<g>
</g>
<g>
</g>
<g>
</g>
<g>
</g>
<g>
</g>
<g>
</g>
<g>
</g>
</svg>
