<?xml version="1.0" encoding="iso-8859-1"?>
<!-- Generator: Adobe Illustrator 19.0.0, SVG Export Plug-In . SVG Version: 6.00 Build 0)  -->
<svg version="1.1" id="Layer_1" xmlns="http://www.w3.org/2000/svg" xmlns:xlink="http://www.w3.org/1999/xlink" x="0px" y="0px"
	 viewBox="0 0 512 512" style="enable-background:new 0 0 512 512;" xml:space="preserve">
<circle style="fill:#FFEDB5;" cx="256" cy="256" r="256"/>
<path style="fill:#FEE187;" d="M507.408,304.418L277.911,74.921l-38.862,25.066l-31.892-2.586l-39.381,14.377l-20.875,30.444
	v155.152l-20.875,73.061l141.302,141.302C387.074,506.521,485.46,419.052,507.408,304.418z"/>
<path style="fill:#E09112;" d="M269.61,71.452h-30.415c-6.449,0-11.676,5.227-11.676,11.676v9.175h-21.045
	c-36.193,0-65.639,29.446-65.639,65.639v155.465h12.067V157.943c0-29.541,24.031-53.572,53.572-53.572h21.045v36.057
	c0,6.449,5.227,11.676,11.676,11.676h30.415c6.449,0,11.676-5.227,11.676-11.676V83.128
	C281.286,76.679,276.058,71.452,269.61,71.452z"/>
<path style="fill:#FF5419;" d="M269.61,71.452h-14.184v80.651h14.184c6.449,0,11.676-5.227,11.676-11.676V83.128
	C281.286,76.679,276.058,71.452,269.61,71.452z"/>
<path style="fill:#C92F00;" d="M327.721,395.912H181.081v-195.52c0-40.493,32.827-73.319,73.319-73.319l0,0
	c40.493,0,73.319,32.827,73.319,73.319v195.52H327.721z"/>
<path style="fill:#930000;" d="M327.721,200.392c0-40.15-32.277-72.744-72.297-73.294v268.814h72.297V200.392z"/>
<g>
	<rect x="181.079" y="200.387" style="fill:#E09112;" width="146.635" height="48.88"/>
	<rect x="181.079" y="367.761" style="fill:#E09112;" width="146.635" height="48.88"/>
</g>
<g>
	<rect x="255.431" y="200.387" style="fill:#FF5419;" width="72.297" height="48.88"/>
	<rect x="255.431" y="367.761" style="fill:#FF5419;" width="72.297" height="48.88"/>
</g>
<path style="fill:#C92F00;" d="M167.776,370.435h-41.751v-55.667c0-11.53,9.345-20.875,20.875-20.875l0,0
	c11.529,0,20.875,9.345,20.875,20.875v55.667H167.776z"/>
<g>
</g>
<g>
</g>
<g>
</g>
<g>
</g>
<g>
</g>
<g>
</g>
<g>
</g>
<g>
</g>
<g>
</g>
<g>
</g>
<g>
</g>
<g>
</g>
<g>
</g>
<g>
</g>
<g>
</g>
</svg>
