<?xml version="1.0" encoding="iso-8859-1"?>
<!-- Generator: Adobe Illustrator 19.0.0, SVG Export Plug-In . SVG Version: 6.00 Build 0)  -->
<svg version="1.1" id="Layer_1" xmlns="http://www.w3.org/2000/svg" xmlns:xlink="http://www.w3.org/1999/xlink" x="0px" y="0px"
	 viewBox="0 0 512 512" style="enable-background:new 0 0 512 512;" xml:space="preserve">
<circle style="fill:#FFC61B;" cx="256" cy="256" r="256"/>
<path style="fill:#EAA22F;" d="M512,256c0-0.788-0.022-1.57-0.029-2.357l-89.514-89.514l-85.189,126.8L91.586,350.115
	l161.852,161.852c0.853,0.009,1.705,0.033,2.56,0.033C397.384,512,512,397.384,512,256z"/>
<path style="fill:#386895;" d="M406.769,355.556H105.231c-10.988,0-19.897-8.907-19.897-19.897V176.34
	c0-10.988,8.907-19.896,19.897-19.896h301.54c10.988,0,19.897,8.907,19.897,19.896v159.318
	C426.667,346.648,417.759,355.556,406.769,355.556z"/>
<path style="fill:#273B7A;" d="M406.769,156.444H218.65v199.111h188.121c10.988,0,19.897-8.907,19.897-19.897V176.34
	C426.667,165.352,417.759,156.444,406.769,156.444z"/>
<path style="fill:#38C6D9;" d="M123.976,325.818H312.17c7.061,0,12.786-5.723,12.786-12.786V198.966
	c0-7.061-5.723-12.784-12.786-12.784H123.976c-7.061,0-12.784,5.723-12.784,12.784v114.066
	C111.192,320.095,116.915,325.818,123.976,325.818z"/>
<path style="fill:#02B2B2;" d="M312.17,186.182h-93.522v139.636h93.522c7.061,0,12.786-5.725,12.786-12.786V198.966
	C324.956,191.905,319.231,186.182,312.17,186.182z"/>
<g>
	<circle style="fill:#121149;" cx="369.778" cy="214.626" r="24.135"/>
	<circle style="fill:#121149;" cx="369.778" cy="288.754" r="24.135"/>
</g>
<g>
</g>
<g>
</g>
<g>
</g>
<g>
</g>
<g>
</g>
<g>
</g>
<g>
</g>
<g>
</g>
<g>
</g>
<g>
</g>
<g>
</g>
<g>
</g>
<g>
</g>
<g>
</g>
<g>
</g>
</svg>
